<?xml version="1.0" standalone="no"?>
<!DOCTYPE svg PUBLIC "-//W3C//DTD SVG 20010904//EN"
 "http://www.w3.org/TR/2001/REC-SVG-20010904/DTD/svg10.dtd">
<svg version="1.0" xmlns="http://www.w3.org/2000/svg"
 width="251.000000pt" height="300.000000pt" viewBox="0 0 251.000000 300.000000"
 preserveAspectRatio="xMidYMid meet">

<g transform="translate(0.000000,300.000000) scale(0.100000,-0.100000)"
fill="#000000" stroke="none">
<path d="M263 2964 c-22 -22 -25 -32 -21 -79 l4 -53 -53 -12 c-44 -9 -53 -15
-53 -33 0 -45 11 -47 85 -21 59 21 74 22 95 12 16 -8 95 -13 228 -16 l202 -4
0 26 0 27 -193 -3 c-105 -1 -197 1 -204 5 -9 6 -5 18 12 44 30 43 32 93 7 116
-28 26 -79 21 -109 -9z m87 -48 c0 -24 -42 -71 -53 -59 -14 14 -7 72 10 81 24
14 43 4 43 -22z"/>
<path d="M2137 2972 c-25 -27 -21 -80 8 -118 19 -24 22 -35 13 -40 -19 -12
-402 -5 -406 6 -5 13 -1002 14 -1002 1 0 -6 5 -13 10 -16 6 -3 10 -15 10 -26
0 -10 -4 -19 -10 -19 -7 0 -10 -272 -10 -797 l0 -798 249 -94 249 -93 249 94
248 94 3 796 2 796 208 4 c136 3 216 8 232 16 21 10 36 9 95 -12 74 -26 85
-24 85 21 0 18 -9 24 -53 33 l-53 12 4 53 c4 47 1 57 -21 79 -32 31 -86 35
-110 8z m83 -76 c0 -44 -9 -50 -37 -24 -40 37 -25 89 20 66 11 -6 17 -20 17
-42z m-473 -118 c-3 -8 -6 -5 -6 6 -1 11 2 17 5 13 3 -3 4 -12 1 -19z m-533
-387 c3 -5 -7 -35 -23 -67 -36 -74 -45 -123 -31 -174 l11 -41 69 63 c121 110
245 172 297 149 41 -19 48 -51 23 -109 -45 -103 -165 -182 -278 -182 -35 0
-73 5 -85 11 -18 10 -24 8 -44 -17 -82 -102 -170 -297 -180 -397 -4 -54 -2
-66 17 -89 16 -21 30 -28 56 -28 105 0 200 108 410 467 61 104 95 153 107 153
9 0 17 -4 17 -10 0 -5 -56 -106 -124 -223 -133 -228 -166 -297 -166 -352 0
-59 34 -47 117 40 39 41 76 75 82 75 29 0 4 -44 -62 -114 -63 -65 -79 -76
-107 -76 -46 0 -70 24 -70 72 l0 39 -47 -39 c-65 -54 -104 -72 -155 -72 -102
0 -140 87 -102 234 20 79 102 246 155 315 l41 54 -16 50 c-20 61 -20 68 -1
142 23 87 71 155 89 126z"/>
<path d="M1458 2275 c-21 -8 -59 -29 -85 -46 -64 -44 -164 -139 -157 -150 10
-16 118 -9 160 10 87 40 181 154 153 187 -14 17 -23 17 -71 -1z"/>
<path d="M191 858 c-28 -60 -36 -120 -21 -172 12 -42 11 -44 -24 -90 -77 -101
-144 -283 -131 -353 19 -103 126 -110 228 -15 l27 26 0 -35 c0 -61 43 -78 95
-37 20 15 30 18 33 10 9 -29 30 -6 61 68 72 175 203 314 257 269 21 -17 18
-32 -30 -127 -58 -116 -73 -165 -58 -197 18 -39 70 -35 118 10 20 19 38 34 38
33 18 -49 34 -63 74 -66 31 -2 50 3 72 18 32 23 39 17 15 -16 -8 -12 -35 -27
-60 -34 -62 -17 -107 -60 -103 -97 2 -23 9 -29 32 -31 41 -5 72 14 112 70 26
35 51 54 94 74 63 28 140 101 220 207 52 70 60 64 60 -49 0 -100 -11 -114 -89
-114 -66 0 -65 -21 2 -34 40 -8 53 -6 96 16 47 23 51 24 51 6 0 -36 20 -17 56
55 94 187 202 305 256 276 24 -13 17 -43 -33 -134 -73 -134 -75 -215 -6 -215
25 0 42 9 72 40 l39 40 16 -32 c20 -44 57 -63 102 -54 85 16 208 181 208 278
0 76 -53 102 -104 52 -55 -56 -55 -148 1 -178 l25 -13 -49 -50 c-70 -72 -144
-79 -158 -15 -19 87 128 302 207 302 22 0 34 20 17 30 -42 27 -172 -90 -227
-204 -40 -83 -116 -168 -146 -164 -34 5 -24 61 30 165 49 94 60 151 36 175
-20 20 -79 14 -113 -11 -37 -27 -37 -29 20 73 28 49 40 81 34 87 -14 14 -18 7
-132 -202 -67 -122 -116 -199 -143 -225 l-41 -39 7 34 c3 19 1 73 -5 122 -11
81 -10 89 8 116 31 44 63 110 63 131 0 11 -6 25 -14 31 -36 30 -95 -54 -96
-135 0 -36 -10 -55 -71 -135 -92 -122 -115 -146 -168 -180 -48 -31 -61 -35
-61 -19 0 5 34 84 75 177 41 92 75 173 75 180 0 35 -25 4 -62 -74 -47 -102
-114 -209 -154 -247 -19 -17 -40 -26 -61 -26 -68 0 -53 84 43 244 58 95 62
106 40 106 -14 0 -69 -87 -121 -189 -36 -72 -122 -163 -149 -159 -32 5 -22 54
35 171 27 55 49 110 49 122 0 68 -81 82 -151 25 -32 -25 -41 -29 -35 -14 18
42 18 54 3 54 -10 0 -36 -47 -73 -132 -48 -106 -70 -142 -114 -190 -64 -67
-90 -75 -90 -25 0 42 30 105 140 292 49 85 90 159 90 165 0 32 -32 -2 -80 -87
-194 -339 -316 -460 -386 -382 -47 52 12 240 123 387 21 28 27 31 45 21 37
-20 131 -6 185 27 52 32 113 112 113 149 0 27 -29 55 -57 55 -36 0 -136 -58
-201 -116 -35 -31 -66 -53 -70 -49 -16 16 -6 111 16 156 26 53 27 59 8 59 -8
0 -23 -19 -35 -42z m298 -47 c36 -23 -63 -139 -138 -162 -42 -13 -103 -9 -108
7 -5 15 123 119 178 143 51 24 50 23 68 12z m881 -176 c0 -13 -42 -87 -46 -82
-7 7 27 87 37 87 5 0 9 -2 9 -5z m668 -164 c9 -59 -22 -126 -52 -115 -27 10
-36 38 -26 74 19 65 71 92 78 41z m-1158 -386 c-31 -32 -70 -47 -70 -27 0 20
86 77 99 65 3 -2 -11 -19 -29 -38z"/>
<path d="M2181 533 c-10 -21 -49 -108 -86 -193 -76 -177 -101 -224 -143 -263
-21 -20 -37 -27 -58 -25 -21 2 -29 -1 -29 -12 0 -24 60 -25 93 -1 44 31 80 89
139 228 44 105 64 138 106 181 60 62 94 82 137 82 63 0 63 -80 0 -180 -16 -25
-42 -58 -58 -74 -29 -27 -31 -27 -60 -12 -67 34 -138 4 -114 -48 14 -32 60
-41 104 -23 29 12 37 12 53 1 27 -20 93 -17 130 6 43 26 108 111 96 123 -6 6
-31 -13 -68 -52 -51 -53 -63 -61 -95 -61 -20 0 -40 5 -43 10 -4 6 14 33 38 60
54 60 88 126 94 184 4 35 1 48 -20 71 -38 44 -93 37 -176 -22 l-24 -17 16 31
c15 29 14 43 -4 43 -5 0 -17 -17 -28 -37z m13 -289 c21 -8 20 -21 -2 -26 -24
-7 -65 9 -57 22 7 11 35 13 59 4z"/>
</g>
</svg>
